<svg width="154" height="26" viewBox="0 0 154 26" fill="none" xmlns="http://www.w3.org/2000/svg">
<path d="M18.5329 1.132V5.79H12.2089V25H6.39488V5.79H0.0708828V1.132H18.5329ZM33.6228 25L28.6588 15.99H27.2648V25H21.4508V1.132H31.2088C33.0901 1.132 34.6881 1.46067 36.0028 2.118C37.3401 2.77533 38.3374 3.682 38.9948 4.838C39.6521 5.97133 39.9808 7.24067 39.9808 8.646C39.9808 10.2327 39.5274 11.6493 38.6208 12.896C37.7368 14.1427 36.4221 15.0267 34.6768 15.548L40.1848 25H33.6228ZM27.2648 11.876H30.8688C31.9341 11.876 32.7274 11.6153 33.2488 11.094C33.7928 10.5727 34.0648 9.836 34.0648 8.884C34.0648 7.97733 33.7928 7.26333 33.2488 6.742C32.7274 6.22067 31.9341 5.96 30.8688 5.96H27.2648V11.876ZM49.4445 5.79V10.618H57.2305V15.106H49.4445V20.342H58.2505V25H43.6305V1.132H58.2505V5.79H49.4445Z" fill="black"/>
<path d="M82.697 1.132V25H76.883V15.174H67.839V25H62.025V1.132H67.839V10.482H76.883V1.132H82.697ZM101.752 20.784H92.8441L91.4161 25H85.3301L93.9661 1.132H100.698L109.334 25H103.18L101.752 20.784ZM100.256 16.296L97.2981 7.558L94.3741 16.296H100.256ZM117.674 1.132V15.412C117.674 16.84 118.026 17.9393 118.728 18.71C119.431 19.4807 120.462 19.866 121.822 19.866C123.182 19.866 124.225 19.4807 124.95 18.71C125.676 17.9393 126.038 16.84 126.038 15.412V1.132H131.852V15.378C131.852 17.5087 131.399 19.3107 130.492 20.784C129.586 22.2573 128.362 23.368 126.82 24.116C125.302 24.864 123.602 25.238 121.72 25.238C119.839 25.238 118.15 24.8753 116.654 24.15C115.181 23.402 114.014 22.2913 113.152 20.818C112.291 19.322 111.86 17.5087 111.86 15.378V1.132H117.674ZM144.571 25.238C142.826 25.238 141.262 24.9547 139.879 24.388C138.496 23.8213 137.386 22.9827 136.547 21.872C135.731 20.7613 135.3 19.424 135.255 17.86H141.443C141.534 18.744 141.84 19.424 142.361 19.9C142.882 20.3533 143.562 20.58 144.401 20.58C145.262 20.58 145.942 20.3873 146.441 20.002C146.94 19.594 147.189 19.0387 147.189 18.336C147.189 17.7467 146.985 17.2593 146.577 16.874C146.192 16.4887 145.704 16.1713 145.115 15.922C144.548 15.6727 143.732 15.3893 142.667 15.072C141.126 14.596 139.868 14.12 138.893 13.644C137.918 13.168 137.08 12.4653 136.377 11.536C135.674 10.6067 135.323 9.394 135.323 7.898C135.323 5.67667 136.128 3.94267 137.737 2.696C139.346 1.42667 141.443 0.792 144.027 0.792C146.656 0.792 148.776 1.42667 150.385 2.696C151.994 3.94267 152.856 5.688 152.969 7.932H146.679C146.634 7.16133 146.35 6.56067 145.829 6.13C145.308 5.67667 144.639 5.45 143.823 5.45C143.12 5.45 142.554 5.64267 142.123 6.028C141.692 6.39067 141.477 6.92333 141.477 7.626C141.477 8.39667 141.84 8.99733 142.565 9.428C143.29 9.85867 144.424 10.3233 145.965 10.822C147.506 11.3433 148.753 11.842 149.705 12.318C150.68 12.794 151.518 13.4853 152.221 14.392C152.924 15.2987 153.275 16.466 153.275 17.894C153.275 19.254 152.924 20.4893 152.221 21.6C151.541 22.7107 150.544 23.5947 149.229 24.252C147.914 24.9093 146.362 25.238 144.571 25.238Z" fill="#6A8A86"/>
</svg>
